<mxfile host="app.diagrams.net" modified="2023-11-29T15:46:59.657Z" agent="Mozilla/5.0 (Windows NT 10.0; Win64; x64) AppleWebKit/537.36 (KHTML, like Gecko) Chrome/103.0.0.0 Safari/537.36" etag="7g9BMj3EO1pPqMIquu3Y" version="22.1.4" type="github">
  <diagram name="Page-1" id="ShheRPUKKzBshwlSDHYq">
    <mxGraphModel dx="1121" dy="613" grid="1" gridSize="10" guides="1" tooltips="1" connect="1" arrows="1" fold="1" page="1" pageScale="1" pageWidth="4681" pageHeight="3300" math="0" shadow="0">
      <root>
        <mxCell id="0" />
        <mxCell id="1" parent="0" />
        <mxCell id="P_ZGVv6pG1mM6uEF-SW_-5" style="edgeStyle=orthogonalEdgeStyle;rounded=0;orthogonalLoop=1;jettySize=auto;html=1;curved=1;" edge="1" parent="1" source="P_ZGVv6pG1mM6uEF-SW_-1" target="P_ZGVv6pG1mM6uEF-SW_-4">
          <mxGeometry relative="1" as="geometry" />
        </mxCell>
        <mxCell id="P_ZGVv6pG1mM6uEF-SW_-7" style="edgeStyle=orthogonalEdgeStyle;rounded=0;orthogonalLoop=1;jettySize=auto;html=1;curved=1;" edge="1" parent="1" source="P_ZGVv6pG1mM6uEF-SW_-1" target="P_ZGVv6pG1mM6uEF-SW_-6">
          <mxGeometry relative="1" as="geometry" />
        </mxCell>
        <mxCell id="P_ZGVv6pG1mM6uEF-SW_-1" value="DryTooling Tech" style="ellipse;whiteSpace=wrap;html=1;" vertex="1" parent="1">
          <mxGeometry x="2281" y="1610" width="120" height="80" as="geometry" />
        </mxCell>
        <mxCell id="P_ZGVv6pG1mM6uEF-SW_-2" value="DryTooling.jl" style="ellipse;whiteSpace=wrap;html=1;" vertex="1" parent="1">
          <mxGeometry x="2520" y="1610" width="120" height="80" as="geometry" />
        </mxCell>
        <mxCell id="P_ZGVv6pG1mM6uEF-SW_-3" style="edgeStyle=orthogonalEdgeStyle;rounded=0;orthogonalLoop=1;jettySize=auto;html=1;entryX=0;entryY=0.5;entryDx=0;entryDy=0;curved=1;" edge="1" parent="1" source="P_ZGVv6pG1mM6uEF-SW_-1" target="P_ZGVv6pG1mM6uEF-SW_-2">
          <mxGeometry relative="1" as="geometry" />
        </mxCell>
        <mxCell id="P_ZGVv6pG1mM6uEF-SW_-11" style="edgeStyle=orthogonalEdgeStyle;rounded=0;orthogonalLoop=1;jettySize=auto;html=1;entryX=0.5;entryY=0;entryDx=0;entryDy=0;" edge="1" parent="1" source="P_ZGVv6pG1mM6uEF-SW_-4" target="P_ZGVv6pG1mM6uEF-SW_-9">
          <mxGeometry relative="1" as="geometry" />
        </mxCell>
        <mxCell id="P_ZGVv6pG1mM6uEF-SW_-12" style="edgeStyle=orthogonalEdgeStyle;rounded=0;orthogonalLoop=1;jettySize=auto;html=1;entryX=0.5;entryY=0;entryDx=0;entryDy=0;" edge="1" parent="1" source="P_ZGVv6pG1mM6uEF-SW_-4" target="P_ZGVv6pG1mM6uEF-SW_-8">
          <mxGeometry relative="1" as="geometry" />
        </mxCell>
        <mxCell id="P_ZGVv6pG1mM6uEF-SW_-4" value="Training" style="ellipse;whiteSpace=wrap;html=1;" vertex="1" parent="1">
          <mxGeometry x="2280" y="1800" width="120" height="80" as="geometry" />
        </mxCell>
        <mxCell id="P_ZGVv6pG1mM6uEF-SW_-26" style="edgeStyle=orthogonalEdgeStyle;rounded=0;orthogonalLoop=1;jettySize=auto;html=1;entryX=1;entryY=0.5;entryDx=0;entryDy=0;" edge="1" parent="1" source="P_ZGVv6pG1mM6uEF-SW_-6" target="P_ZGVv6pG1mM6uEF-SW_-25">
          <mxGeometry relative="1" as="geometry" />
        </mxCell>
        <mxCell id="P_ZGVv6pG1mM6uEF-SW_-34" style="edgeStyle=orthogonalEdgeStyle;rounded=0;orthogonalLoop=1;jettySize=auto;html=1;entryX=1;entryY=0.5;entryDx=0;entryDy=0;" edge="1" parent="1" source="P_ZGVv6pG1mM6uEF-SW_-6" target="P_ZGVv6pG1mM6uEF-SW_-33">
          <mxGeometry relative="1" as="geometry" />
        </mxCell>
        <mxCell id="P_ZGVv6pG1mM6uEF-SW_-41" style="edgeStyle=orthogonalEdgeStyle;rounded=0;orthogonalLoop=1;jettySize=auto;html=1;entryX=1;entryY=0.5;entryDx=0;entryDy=0;" edge="1" parent="1" source="P_ZGVv6pG1mM6uEF-SW_-6" target="P_ZGVv6pG1mM6uEF-SW_-40">
          <mxGeometry relative="1" as="geometry" />
        </mxCell>
        <mxCell id="P_ZGVv6pG1mM6uEF-SW_-6" value="Consulting" style="ellipse;whiteSpace=wrap;html=1;" vertex="1" parent="1">
          <mxGeometry x="2040" y="1610" width="120" height="80" as="geometry" />
        </mxCell>
        <mxCell id="P_ZGVv6pG1mM6uEF-SW_-13" style="edgeStyle=orthogonalEdgeStyle;rounded=0;orthogonalLoop=1;jettySize=auto;html=1;" edge="1" parent="1" source="P_ZGVv6pG1mM6uEF-SW_-8" target="P_ZGVv6pG1mM6uEF-SW_-10">
          <mxGeometry relative="1" as="geometry" />
        </mxCell>
        <mxCell id="P_ZGVv6pG1mM6uEF-SW_-15" style="edgeStyle=orthogonalEdgeStyle;rounded=0;orthogonalLoop=1;jettySize=auto;html=1;exitX=1;exitY=0.5;exitDx=0;exitDy=0;entryX=0;entryY=0.5;entryDx=0;entryDy=0;" edge="1" parent="1" source="P_ZGVv6pG1mM6uEF-SW_-8" target="P_ZGVv6pG1mM6uEF-SW_-14">
          <mxGeometry relative="1" as="geometry" />
        </mxCell>
        <mxCell id="P_ZGVv6pG1mM6uEF-SW_-8" value="Julia for Engineers" style="rounded=1;whiteSpace=wrap;html=1;" vertex="1" parent="1">
          <mxGeometry x="2360" y="1920" width="120" height="60" as="geometry" />
        </mxCell>
        <mxCell id="P_ZGVv6pG1mM6uEF-SW_-17" style="edgeStyle=orthogonalEdgeStyle;rounded=0;orthogonalLoop=1;jettySize=auto;html=1;entryX=1;entryY=0.5;entryDx=0;entryDy=0;" edge="1" parent="1" source="P_ZGVv6pG1mM6uEF-SW_-9" target="P_ZGVv6pG1mM6uEF-SW_-16">
          <mxGeometry relative="1" as="geometry" />
        </mxCell>
        <mxCell id="P_ZGVv6pG1mM6uEF-SW_-19" style="edgeStyle=orthogonalEdgeStyle;rounded=0;orthogonalLoop=1;jettySize=auto;html=1;entryX=1;entryY=0.5;entryDx=0;entryDy=0;" edge="1" parent="1" source="P_ZGVv6pG1mM6uEF-SW_-9" target="P_ZGVv6pG1mM6uEF-SW_-18">
          <mxGeometry relative="1" as="geometry" />
        </mxCell>
        <mxCell id="P_ZGVv6pG1mM6uEF-SW_-21" style="edgeStyle=orthogonalEdgeStyle;rounded=0;orthogonalLoop=1;jettySize=auto;html=1;entryX=1;entryY=0.5;entryDx=0;entryDy=0;" edge="1" parent="1" source="P_ZGVv6pG1mM6uEF-SW_-9" target="P_ZGVv6pG1mM6uEF-SW_-20">
          <mxGeometry relative="1" as="geometry" />
        </mxCell>
        <mxCell id="P_ZGVv6pG1mM6uEF-SW_-24" style="edgeStyle=orthogonalEdgeStyle;rounded=0;orthogonalLoop=1;jettySize=auto;html=1;entryX=1;entryY=0.5;entryDx=0;entryDy=0;" edge="1" parent="1" source="P_ZGVv6pG1mM6uEF-SW_-9" target="P_ZGVv6pG1mM6uEF-SW_-23">
          <mxGeometry relative="1" as="geometry" />
        </mxCell>
        <mxCell id="P_ZGVv6pG1mM6uEF-SW_-9" value="Python for Engineers" style="rounded=1;whiteSpace=wrap;html=1;" vertex="1" parent="1">
          <mxGeometry x="2200" y="1920" width="120" height="60" as="geometry" />
        </mxCell>
        <mxCell id="P_ZGVv6pG1mM6uEF-SW_-10" value="Dynamical systems with ModelingToolkit.jl" style="rounded=1;whiteSpace=wrap;html=1;" vertex="1" parent="1">
          <mxGeometry x="2520" y="1920" width="120" height="60" as="geometry" />
        </mxCell>
        <mxCell id="P_ZGVv6pG1mM6uEF-SW_-14" value="Optimization with JuMP.jl" style="rounded=1;whiteSpace=wrap;html=1;" vertex="1" parent="1">
          <mxGeometry x="2520" y="1990" width="120" height="60" as="geometry" />
        </mxCell>
        <mxCell id="P_ZGVv6pG1mM6uEF-SW_-16" value="Physics-based MPC with CasADi" style="rounded=1;whiteSpace=wrap;html=1;" vertex="1" parent="1">
          <mxGeometry x="2040" y="1920" width="120" height="60" as="geometry" />
        </mxCell>
        <mxCell id="P_ZGVv6pG1mM6uEF-SW_-18" value="Data analysis with SciPy stack" style="rounded=1;whiteSpace=wrap;html=1;" vertex="1" parent="1">
          <mxGeometry x="2040" y="1990" width="120" height="60" as="geometry" />
        </mxCell>
        <mxCell id="P_ZGVv6pG1mM6uEF-SW_-20" value="Dashboards with streamlit" style="rounded=1;whiteSpace=wrap;html=1;" vertex="1" parent="1">
          <mxGeometry x="2040" y="2060" width="120" height="60" as="geometry" />
        </mxCell>
        <mxCell id="P_ZGVv6pG1mM6uEF-SW_-22" value="Dashboards with Genie.jl" style="rounded=1;whiteSpace=wrap;html=1;" vertex="1" parent="1">
          <mxGeometry x="2520" y="2060" width="120" height="60" as="geometry" />
        </mxCell>
        <mxCell id="P_ZGVv6pG1mM6uEF-SW_-23" value="CFD post-processing with PyVista" style="rounded=1;whiteSpace=wrap;html=1;" vertex="1" parent="1">
          <mxGeometry x="2040" y="2130" width="120" height="60" as="geometry" />
        </mxCell>
        <mxCell id="P_ZGVv6pG1mM6uEF-SW_-28" style="edgeStyle=orthogonalEdgeStyle;rounded=0;orthogonalLoop=1;jettySize=auto;html=1;entryX=1;entryY=0.5;entryDx=0;entryDy=0;" edge="1" parent="1" source="P_ZGVv6pG1mM6uEF-SW_-25" target="P_ZGVv6pG1mM6uEF-SW_-27">
          <mxGeometry relative="1" as="geometry" />
        </mxCell>
        <mxCell id="P_ZGVv6pG1mM6uEF-SW_-30" style="edgeStyle=orthogonalEdgeStyle;rounded=0;orthogonalLoop=1;jettySize=auto;html=1;entryX=1;entryY=0.5;entryDx=0;entryDy=0;" edge="1" parent="1" source="P_ZGVv6pG1mM6uEF-SW_-25" target="P_ZGVv6pG1mM6uEF-SW_-29">
          <mxGeometry relative="1" as="geometry" />
        </mxCell>
        <mxCell id="P_ZGVv6pG1mM6uEF-SW_-25" value="OpenFOAM" style="rounded=1;whiteSpace=wrap;html=1;" vertex="1" parent="1">
          <mxGeometry x="1890" y="1620" width="120" height="60" as="geometry" />
        </mxCell>
        <mxCell id="P_ZGVv6pG1mM6uEF-SW_-27" value="Reacting flows" style="rounded=1;whiteSpace=wrap;html=1;" vertex="1" parent="1">
          <mxGeometry x="1690" y="1580" width="120" height="60" as="geometry" />
        </mxCell>
        <mxCell id="P_ZGVv6pG1mM6uEF-SW_-29" value="Conjugate heat transfer" style="rounded=1;whiteSpace=wrap;html=1;" vertex="1" parent="1">
          <mxGeometry x="1690" y="1660" width="120" height="60" as="geometry" />
        </mxCell>
        <mxCell id="P_ZGVv6pG1mM6uEF-SW_-36" style="edgeStyle=orthogonalEdgeStyle;rounded=0;orthogonalLoop=1;jettySize=auto;html=1;entryX=1;entryY=0.5;entryDx=0;entryDy=0;" edge="1" parent="1" source="P_ZGVv6pG1mM6uEF-SW_-33" target="P_ZGVv6pG1mM6uEF-SW_-35">
          <mxGeometry relative="1" as="geometry" />
        </mxCell>
        <mxCell id="P_ZGVv6pG1mM6uEF-SW_-38" style="edgeStyle=orthogonalEdgeStyle;rounded=0;orthogonalLoop=1;jettySize=auto;html=1;entryX=1;entryY=0.5;entryDx=0;entryDy=0;" edge="1" parent="1" source="P_ZGVv6pG1mM6uEF-SW_-33" target="P_ZGVv6pG1mM6uEF-SW_-37">
          <mxGeometry relative="1" as="geometry" />
        </mxCell>
        <mxCell id="P_ZGVv6pG1mM6uEF-SW_-33" value="Process simulation" style="rounded=1;whiteSpace=wrap;html=1;" vertex="1" parent="1">
          <mxGeometry x="1950" y="1430" width="120" height="60" as="geometry" />
        </mxCell>
        <mxCell id="P_ZGVv6pG1mM6uEF-SW_-35" value="Rotary kiln" style="rounded=1;whiteSpace=wrap;html=1;" vertex="1" parent="1">
          <mxGeometry x="1750" y="1390" width="120" height="60" as="geometry" />
        </mxCell>
        <mxCell id="P_ZGVv6pG1mM6uEF-SW_-37" value="Packed beds with heat transfer" style="rounded=1;whiteSpace=wrap;html=1;" vertex="1" parent="1">
          <mxGeometry x="1750" y="1470" width="120" height="60" as="geometry" />
        </mxCell>
        <mxCell id="P_ZGVv6pG1mM6uEF-SW_-43" style="edgeStyle=orthogonalEdgeStyle;rounded=0;orthogonalLoop=1;jettySize=auto;html=1;entryX=1;entryY=0.5;entryDx=0;entryDy=0;" edge="1" parent="1" source="P_ZGVv6pG1mM6uEF-SW_-40" target="P_ZGVv6pG1mM6uEF-SW_-42">
          <mxGeometry relative="1" as="geometry" />
        </mxCell>
        <mxCell id="P_ZGVv6pG1mM6uEF-SW_-45" style="edgeStyle=orthogonalEdgeStyle;rounded=0;orthogonalLoop=1;jettySize=auto;html=1;" edge="1" parent="1" source="P_ZGVv6pG1mM6uEF-SW_-40" target="P_ZGVv6pG1mM6uEF-SW_-44">
          <mxGeometry relative="1" as="geometry" />
        </mxCell>
        <mxCell id="P_ZGVv6pG1mM6uEF-SW_-48" style="edgeStyle=orthogonalEdgeStyle;rounded=0;orthogonalLoop=1;jettySize=auto;html=1;entryX=1;entryY=0.5;entryDx=0;entryDy=0;" edge="1" parent="1" source="P_ZGVv6pG1mM6uEF-SW_-40" target="P_ZGVv6pG1mM6uEF-SW_-47">
          <mxGeometry relative="1" as="geometry" />
        </mxCell>
        <mxCell id="P_ZGVv6pG1mM6uEF-SW_-40" value="Scientific computing" style="rounded=1;whiteSpace=wrap;html=1;" vertex="1" parent="1">
          <mxGeometry x="1950" y="1810" width="120" height="60" as="geometry" />
        </mxCell>
        <mxCell id="P_ZGVv6pG1mM6uEF-SW_-42" value="Opportunities assessment" style="rounded=1;whiteSpace=wrap;html=1;" vertex="1" parent="1">
          <mxGeometry x="1750" y="1740" width="120" height="60" as="geometry" />
        </mxCell>
        <mxCell id="P_ZGVv6pG1mM6uEF-SW_-44" value="Support HR in recruiting process" style="rounded=1;whiteSpace=wrap;html=1;" vertex="1" parent="1">
          <mxGeometry x="1750" y="1810" width="120" height="60" as="geometry" />
        </mxCell>
        <mxCell id="P_ZGVv6pG1mM6uEF-SW_-47" value="Infrastructure dimensioning" style="rounded=1;whiteSpace=wrap;html=1;" vertex="1" parent="1">
          <mxGeometry x="1750" y="1880" width="120" height="60" as="geometry" />
        </mxCell>
      </root>
    </mxGraphModel>
  </diagram>
</mxfile>
